<?xml version="1.0" encoding="UTF-8" standalone="no" ?>
<!DOCTYPE svg PUBLIC "-//W3C//DTD SVG 1.1//EN" "http://www.w3.org/Graphics/SVG/1.1/DTD/svg11.dtd">
<svg xmlns="http://www.w3.org/2000/svg" xmlns:xlink="http://www.w3.org/1999/xlink" version="1.1" width="278.65" height="155.08799999999997" xml:space="preserve">
<desc>Created with Fabric.js 1.6.0-rc.1</desc>
<defs></defs>
<g style="stroke: none; stroke-width: 1; stroke-dasharray: none; stroke-linecap: butt; stroke-linejoin: miter; stroke-miterlimit: 10; fill: none; fill-rule: nonzero; opacity: 1;" transform="translate(111.80999999999995 10) rotate(33.34) scale(0.08 0.08)" >
  <path d="M 144.664 402.675 c -69.889 0 -133.018 -52.98 -136.005 -55.523 L 0 339.781 l 4.758 -10.328 c 1.854 -4.028 46.36 -98.859 126.331 -116.484 l 6.435 -1.418 c 51.491 -11.348 102.618 21.311 113.966 72.803 c 11.348 51.493 -21.311 102.617 -72.802 113.966 l -6.436 1.418 C 163.022 401.773 153.782 402.675 144.664 402.675 z" style="stroke: none; stroke-width: 1; stroke-dasharray: none; stroke-linecap: butt; stroke-linejoin: miter; stroke-miterlimit: 10; fill: #728f00; fill-rule: nonzero; opacity: 1;" transform=" matrix(1 0 0 1 0 0) " stroke-linecap="round" />
  <path d="M 357.677 281.941 c -33.909 0 -67.528 -14.791 -90.362 -43.226 c -19.357 -24.106 -28.169 -54.308 -24.811 -85.041 c 3.358 -30.733 18.482 -58.32 42.589 -77.678 l 6.419 -5.156 c 32.756 -26.301 79.453 -39.95 135.08 -39.535 c 41.153 0.324 72.694 8.118 74.018 8.449 l 11.029 2.765 l 0.318 11.366 c 0.153 5.464 2.85 134.534 -75.502 197.451 h 0.001 l -6.42 5.156 C 408.707 273.62 383.11 281.941 357.677 281.941 z" style="stroke: none; stroke-width: 1; stroke-dasharray: none; stroke-linecap: butt; stroke-linejoin: miter; stroke-miterlimit: 10; fill: #728f00; fill-rule: nonzero; opacity: 1;" transform=" matrix(1 0 0 1 0 0) " stroke-linecap="round" />
  <path d="M 413.587 102.181 c -22.353 5.624 -56.132 14.121 -86.153 32.202 c -37.496 22.583 -58.637 54.009 -62.836 93.404 l -0.084 0.792 v 62.746 c -16.317 -16.101 -34.359 -26.118 -53.944 -29.896 c -51.131 -9.861 -97.442 25.126 -122.322 43.924 l 18.089 23.94 c 21.154 -15.984 60.526 -45.736 98.55 -38.402 c 21.914 4.227 41.959 20.571 59.626 48.589 v 141.223 h 30.005 V 230.201 c 7.914 -69.118 84.937 -88.494 126.386 -98.922 L 413.587 102.181 z" style="stroke: none; stroke-width: 1; stroke-dasharray: none; stroke-linecap: butt; stroke-linejoin: miter; stroke-miterlimit: 10; fill: #78bf49; fill-rule: nonzero; opacity: 1;" transform=" matrix(1 0 0 1 0 0) " stroke-linecap="round" />
</g>
<g style="stroke: none; stroke-width: 1; stroke-dasharray: none; stroke-linecap: butt; stroke-linejoin: miter; stroke-miterlimit: 10; fill: none; fill-rule: nonzero; opacity: 1;" transform="translate(81.38999999999999 25.97999999999996) rotate(34.55) scale(0.1 0.1)" >
  <path d="M 382.983 105.853 c -8.34 -36.15 -34.689 -49.507 -55.324 -54.346 c -2.506 -0.586 -5.089 0.595 -6.281 2.875 c -1.193 2.281 -0.69 5.078 1.22 6.8 c 19.451 17.542 25.974 38.846 27.876 47.192 c 0.585 2.564 2.866 4.385 5.496 4.385 h 21.522 c 1.717 0 3.343 -0.782 4.41 -2.127 C 382.972 109.284 383.37 107.526 382.983 105.853 z" style="stroke: none; stroke-width: 1; stroke-dasharray: none; stroke-linecap: butt; stroke-linejoin: miter; stroke-miterlimit: 10; fill: #70C449; fill-rule: nonzero; opacity: 0;" transform=" matrix(1 0 0 1 0 0) " stroke-linecap="round" />
  <path d="M 457.404 1.77 c -1.839 -1.95 -4.799 -2.336 -7.077 -0.921 c -5.655 3.515 -11.102 7.555 -16.187 12.006 c -25.534 22.351 -41.708 53.765 -48.072 93.37 c -0.262 1.63 0.204 3.293 1.275 4.55 c 1.071 1.256 2.639 1.981 4.291 1.981 h 25.363 c 2.847 0 5.246 -2.122 5.595 -4.947 c 3.336 -27.048 12.171 -66.167 35.314 -98.919 C 459.455 6.699 459.245 3.723 457.404 1.77 z" style="stroke: none; stroke-width: 1; stroke-dasharray: none; stroke-linecap: butt; stroke-linejoin: miter; stroke-miterlimit: 10; fill: #70C449; fill-rule: nonzero; opacity: 0;" transform=" matrix(1 0 0 1 0 0) " stroke-linecap="round" />
  <path d="M 473.94 365.997 c -1.811 0 -3.637 -0.579 -5.178 -1.775 l -23.117 -17.938 c -3.688 -2.864 -4.36 -8.175 -1.496 -11.864 c 2.864 -3.689 8.175 -4.358 11.864 -1.497 l 23.117 17.938 c 3.69 2.864 4.36 8.175 1.497 11.864 C 478.96 364.873 476.462 365.997 473.94 365.997 z" style="stroke: none; stroke-width: 1; stroke-dasharray: none; stroke-linecap: butt; stroke-linejoin: miter; stroke-miterlimit: 10; fill: #D87225; fill-rule: nonzero; opacity: 1;" transform=" matrix(1 0 0 1 0 0) " stroke-linecap="round" />
  <path d="M 336.155 456.192 c -2.308 0 -4.606 -0.939 -6.275 -2.786 c -3.131 -3.463 -2.861 -8.811 0.602 -11.943 l 16.214 -14.657 c 3.466 -3.131 8.812 -2.861 11.944 0.602 c 3.131 3.463 2.861 8.811 -0.602 11.943 l -16.214 14.657 C 340.205 455.47 338.177 456.192 336.155 456.192 z" style="stroke: none; stroke-width: 1; stroke-dasharray: none; stroke-linecap: butt; stroke-linejoin: miter; stroke-miterlimit: 10; fill: #D87225; fill-rule: nonzero; opacity: 1;" transform=" matrix(1 0 0 1 0 0) " stroke-linecap="round" />
  <path d="M 493.988 241.979 c -1.837 0 -3.684 -0.594 -5.237 -1.82 l -27.14 -21.433 c -3.665 -2.893 -4.29 -8.211 -1.396 -11.876 c 2.894 -3.665 8.211 -4.289 11.876 -1.395 l 27.141 21.433 c 3.665 2.893 4.29 8.211 1.396 11.876 C 498.962 240.876 496.486 241.979 493.988 241.979 z" style="stroke: none; stroke-width: 1; stroke-dasharray: none; stroke-linecap: butt; stroke-linejoin: miter; stroke-miterlimit: 10; fill: #D87225; fill-rule: nonzero; opacity: 1;" transform=" matrix(1 0 0 1 0 0) " stroke-linecap="round" />
  <path d="M 437.069 115.578 c -0.672 0 -1.352 -0.08 -2.034 -0.249 c -4.535 -1.118 -7.302 -5.703 -6.182 -10.235 c 8.342 -33.799 32.595 -45.216 33.624 -45.685 c 4.248 -1.939 9.265 -0.069 11.204 4.181 c 1.93 4.229 0.085 9.22 -4.124 11.177 c -0.843 0.405 -18.005 8.935 -24.285 34.379 C 444.32 112.998 440.867 115.578 437.069 115.578 z" style="stroke: none; stroke-width: 1; stroke-dasharray: none; stroke-linecap: butt; stroke-linejoin: miter; stroke-miterlimit: 10; fill: #70C449; fill-rule: nonzero; opacity: 0;" transform=" matrix(1 0 0 1 0 0) " stroke-linecap="round" />
  <path d="M 332.088 269.433 l 24.335 195.927 c 0 21.089 17.096 38.183 38.185 38.183 h 2.237 c 21.086 0 38.183 -17.094 38.183 -38.183 l 40.218 -320.059 c 0 -21.085 -17.096 -38.183 -38.183 -38.183 h -82.673 c -21.086 0 -38.183 17.098 -38.183 38.183 l 12.254 97.522" style="stroke: none; stroke-width: 1; stroke-dasharray: none; stroke-linecap: butt; stroke-linejoin: miter; stroke-miterlimit: 10; fill: #c029fc; fill-rule: nonzero; opacity: 1;" transform=" matrix(1 0 0 1 0 0) " stroke-linecap="round" />
  <path d="M 235.08 220.788 c -14.335 -35.929 -49.425 -61.331 -90.468 -61.331 c -1.497 0 -2.983 0.046 -4.466 0.114 c -6.323 -29.866 -32.828 -52.279 -64.576 -52.279 c -36.461 0 -66.019 29.557 -66.019 66.018 c 0 27.361 16.645 50.833 40.359 60.847 c -1.737 7.283 -2.684 14.874 -2.684 22.691 c 0 26.689 10.743 50.861 28.131 68.452 c 1.109 61.282 51.125 110.622 112.674 110.622 c 9.99 0 19.679 -1.3 28.904 -3.741 l 22.962 -8.877 c 36.144 -18.77 60.833 -56.542 60.833 -100.08 C 300.728 277.773 273.826 238.615 235.08 220.788 z" style="stroke: none; stroke-width: 1; stroke-dasharray: none; stroke-linecap: butt; stroke-linejoin: miter; stroke-miterlimit: 10; fill: #70C449; fill-rule: nonzero; opacity: 0;" transform=" matrix(1 0 0 1 0 0) " stroke-linecap="round" />
  <path d="M 416.764 149.953 h -98.087 c -0.638 0 -1.259 0.077 -1.858 0.212 l 2.098 16.701 h 97.847 c 4.671 0 8.456 -3.785 8.456 -8.456 C 425.219 153.738 421.435 149.953 416.764 149.953 z" style="stroke: none; stroke-width: 1; stroke-dasharray: none; stroke-linecap: butt; stroke-linejoin: miter; stroke-miterlimit: 10; fill: #D87225; fill-rule: nonzero; opacity: 1;" transform=" matrix(1 0 0 1 0 0) " stroke-linecap="round" />
  <path d="M 358.137 192.735 h -33.823 c -0.731 0 -1.435 0.103 -2.112 0.277 l 2.089 16.633 c 0.008 0 0.016 0.001 0.023 0.001 h 33.823 c 4.671 0 8.456 -3.785 8.456 -8.456 C 366.593 196.52 362.808 192.735 358.137 192.735 z" style="stroke: none; stroke-width: 1; stroke-dasharray: none; stroke-linecap: butt; stroke-linejoin: miter; stroke-miterlimit: 10; fill: #D87225; fill-rule: nonzero; opacity: 1;" transform=" matrix(1 0 0 1 0 0) " stroke-linecap="round" />
  <path d="M 461.02 235.518 h -80.101 c -4.671 0 -8.456 3.785 -8.456 8.456 s 3.785 8.456 8.456 8.456 h 80.101 c 0.259 0 0.515 -0.016 0.769 -0.038 l 2.058 -16.378 C 462.962 235.698 462.013 235.518 461.02 235.518 z" style="stroke: none; stroke-width: 1; stroke-dasharray: none; stroke-linecap: butt; stroke-linejoin: miter; stroke-miterlimit: 10; fill: #D87225; fill-rule: nonzero; opacity: 1;" transform=" matrix(1 0 0 1 0 0) " stroke-linecap="round" />
  <path d="M 455.588 278.299 h -37.132 c -4.67 0 -8.456 3.785 -8.456 8.456 c 0 4.671 3.786 8.456 8.456 8.456 h 37.132 c 0.28 0 0.554 -0.016 0.825 -0.042 l 2.054 -16.356 C 457.568 278.487 456.6 278.299 455.588 278.299 z" style="stroke: none; stroke-width: 1; stroke-dasharray: none; stroke-linecap: butt; stroke-linejoin: miter; stroke-miterlimit: 10; fill: #D87225; fill-rule: nonzero; opacity: 1;" transform=" matrix(1 0 0 1 0 0) " stroke-linecap="round" />
  <path d="M 387.374 321.081 h -46.696 c -0.741 0 -1.456 0.105 -2.139 0.283 l 2.064 16.625 c 0.025 0 0.05 0.003 0.074 0.003 h 46.696 c 4.67 0 8.456 -3.785 8.456 -8.456 C 395.829 324.866 392.043 321.081 387.374 321.081 z" style="stroke: none; stroke-width: 1; stroke-dasharray: none; stroke-linecap: butt; stroke-linejoin: miter; stroke-miterlimit: 10; fill: #D87225; fill-rule: nonzero; opacity: 1;" transform=" matrix(1 0 0 1 0 0) " stroke-linecap="round" />
  <path d="M 413.381 363.863 h -68.833 c -0.246 0 -0.487 0.017 -0.728 0.036 l 2.095 16.875 h 67.466 c 4.671 0 8.456 -3.786 8.456 -8.456 C 421.837 367.649 418.052 363.863 413.381 363.863 z" style="stroke: none; stroke-width: 1; stroke-dasharray: none; stroke-linecap: butt; stroke-linejoin: miter; stroke-miterlimit: 10; fill: #D87225; fill-rule: nonzero; opacity: 1;" transform=" matrix(1 0 0 1 0 0) " stroke-linecap="round" />
  <path d="M 440.158 406.646 h -36.923 c -4.67 0 -8.456 3.785 -8.456 8.456 c 0 4.671 3.786 8.456 8.456 8.456 h 36.923 c 0.042 0 0.081 -0.006 0.123 -0.007 l 2.086 -16.604 C 441.662 406.756 440.925 406.646 440.158 406.646 z" style="stroke: none; stroke-width: 1; stroke-dasharray: none; stroke-linecap: butt; stroke-linejoin: miter; stroke-miterlimit: 10; fill: #D87225; fill-rule: nonzero; opacity: 1;" transform=" matrix(1 0 0 1 0 0) " stroke-linecap="round" />
  <path d="M 400.979 449.427 h -44.941 c -0.539 0 -1.065 0.056 -1.576 0.152 l 1.959 15.782 c 0 0.328 0.018 0.652 0.025 0.977 h 44.533 c 4.671 0 8.456 -3.785 8.456 -8.456 C 409.435 453.212 405.65 449.427 400.979 449.427 z" style="stroke: none; stroke-width: 1; stroke-dasharray: none; stroke-linecap: butt; stroke-linejoin: miter; stroke-miterlimit: 10; fill: #D87225; fill-rule: nonzero; opacity: 1;" transform=" matrix(1 0 0 1 0 0) " stroke-linecap="round" />
  <path d="M 252.393 512 c -4.405 0 -8.12 -3.413 -8.428 -7.874 c -7.352 -106.601 -49.12 -184.188 -82.865 -230.505 c -36.673 -50.335 -72.103 -75.73 -72.458 -75.98 c -3.807 -2.7 -4.712 -7.974 -2.015 -11.785 c 2.696 -3.81 7.964 -4.721 11.777 -2.025 c 1.52 1.072 37.653 26.883 75.932 79.24 c 22.427 30.676 40.919 64.157 54.964 99.512 c 17.549 44.176 28.16 91.407 31.537 140.382 c 0.321 4.659 -3.195 8.696 -7.854 9.017 C 252.785 511.993 252.588 512 252.393 512 z" style="stroke: none; stroke-width: 1; stroke-dasharray: none; stroke-linecap: butt; stroke-linejoin: miter; stroke-miterlimit: 10; fill: #43A838; fill-rule: nonzero; opacity: 0;" transform=" matrix(1 0 0 1 0 0) " stroke-linecap="round" />
  <path d="M 222.125 375.923 c -1.315 0 -2.649 -0.308 -3.896 -0.957 c -39.292 -20.452 -84.393 -16.366 -84.845 -16.324 c -4.651 0.47 -8.782 -2.954 -9.231 -7.601 c -0.449 -4.648 2.954 -8.782 7.602 -9.231 c 2.044 -0.198 50.59 -4.584 94.281 18.155 c 4.142 2.157 5.752 7.262 3.597 11.405 C 228.126 374.263 225.178 375.923 222.125 375.923 z" style="stroke: none; stroke-width: 1; stroke-dasharray: none; stroke-linecap: butt; stroke-linejoin: miter; stroke-miterlimit: 10; fill: #43A838; fill-rule: nonzero; opacity: 0;" transform=" matrix(1 0 0 1 0 0) " stroke-linecap="round" />
  <path d="M 198.139 324.683 c -4.554 0 -8.311 -3.622 -8.447 -8.205 c -1.357 -45.857 26.335 -66.236 27.515 -67.08 c 3.796 -2.722 9.079 -1.847 11.799 1.949 c 2.708 3.783 1.854 9.04 -1.906 11.768 c -0.996 0.738 -21.58 16.501 -20.504 52.864 c 0.139 4.668 -3.535 8.564 -8.201 8.703 C 198.309 324.682 198.224 324.683 198.139 324.683 z" style="stroke: none; stroke-width: 1; stroke-dasharray: none; stroke-linecap: butt; stroke-linejoin: miter; stroke-miterlimit: 10; fill: #43A838; fill-rule: nonzero; opacity: 0;" transform=" matrix(1 0 0 1 0 0) " stroke-linecap="round" />
  <path d="M 146.877 250.448 c -0.986 0 -1.992 -0.174 -2.971 -0.541 c -20.55 -7.717 -37.804 -0.262 -37.978 -0.186 c -4.271 1.895 -9.264 -0.035 -11.157 -4.303 c -1.892 -4.27 0.035 -9.265 4.305 -11.157 c 0.961 -0.427 23.823 -10.306 50.773 -0.186 c 4.372 1.642 6.585 6.517 4.945 10.888 C 153.521 248.356 150.301 250.448 146.877 250.448 z" style="stroke: none; stroke-width: 1; stroke-dasharray: none; stroke-linecap: butt; stroke-linejoin: miter; stroke-miterlimit: 10; fill: #43A838; fill-rule: nonzero; opacity: 0;" transform=" matrix(1 0 0 1 0 0) " stroke-linecap="round" />
  <path d="M 210.034 431.409 c -61.269 0 -111.436 -47.482 -115.738 -107.655 c -0.002 -0.014 -0.005 -0.024 -0.006 -0.036 c -0.675 -6.733 -4.294 -10.529 -4.294 -10.529 l 0.003 -0.003 c -15.527 -17.659 -24.956 -40.81 -24.956 -66.174 c 0 -5.955 0.537 -11.783 1.539 -17.45 c 0.002 -0.011 0.002 -0.019 0.003 -0.029 c 0.662 -4.656 -1.441 -6.848 -2.842 -7.771 c -0.369 -0.185 -0.734 -0.377 -1.099 -0.568 c -0.036 -0.014 -0.055 -0.019 -0.055 -0.019 l 0.008 -0.007 c -21.61 -11.384 -36.347 -34.055 -36.347 -60.177 c 0 -17.517 6.629 -33.483 17.509 -45.536 C 23.37 126.69 9.551 148.382 9.551 173.308 c 0 27.361 16.645 50.833 40.359 60.847 c -1.737 7.283 -2.684 14.874 -2.684 22.691 c 0 26.689 10.743 50.861 28.131 68.452 c 1.109 61.282 51.125 110.622 112.674 110.622 c 9.99 0 19.679 -1.3 28.904 -3.741 l 3.13 -1.21 C 216.757 431.251 213.414 431.409 210.034 431.409 z" style="stroke: none; stroke-width: 1; stroke-dasharray: none; stroke-linecap: butt; stroke-linejoin: miter; stroke-miterlimit: 10; fill: #231F20; fill-rule: nonzero; opacity: 0;" transform=" matrix(1 0 0 1 0 0) " stroke-linecap="round" />
  <path d="M 375.025 465.361 L 350.69 269.434 l -3.627 -26.61 l -12.254 -97.522 c 0 -21.085 17.096 -38.183 38.183 -38.183 h -18.603 c -21.086 0 -38.183 17.098 -38.183 38.183 l 12.254 97.522 l 3.627 26.61 l 24.335 195.927 c 0 21.089 17.096 38.183 38.185 38.183 h 2.237 c 2.81 0 5.545 -0.312 8.183 -0.888 C 387.872 498.908 375.025 483.64 375.025 465.361 z" style="stroke: none; stroke-width: 1; stroke-dasharray: none; stroke-linecap: butt; stroke-linejoin: miter; stroke-miterlimit: 10; fill: #231F20; fill-rule: nonzero; opacity: 0;" transform=" matrix(1 0 0 1 0 0) " stroke-linecap="round" />
</g>
<g style="stroke: none; stroke-width: 1; stroke-dasharray: none; stroke-linecap: butt; stroke-linejoin: miter; stroke-miterlimit: 10; fill: none; fill-rule: nonzero; opacity: 1;" transform="translate(10.000000000000007 79.00999999999999) rotate(269.29) scale(0.05 0.03)" >
  <path d="M 70 1208.001 h 802 v 47 H 70 z" style="stroke: none; stroke-width: 1; stroke-dasharray: none; stroke-linecap: butt; stroke-linejoin: miter; stroke-miterlimit: 10; fill: #b78a25; fill-rule: nonzero; opacity: 0;" transform="" stroke-linecap="round" />
  <path d="M 477 1318.565 c 0 9.629 -7.807 17.436 -17.438 17.436 h -0.127 c -9.629 0 -17.437 -7.807 -17.437 -17.436 v -186.129 c 0 -9.629 7.807 -17.437 17.437 -17.437 h 0.127 c 9.631 0 17.438 7.808 17.438 17.437 v 186.129 z" style="stroke: none; stroke-width: 1; stroke-dasharray: none; stroke-linecap: butt; stroke-linejoin: miter; stroke-miterlimit: 10; fill: #b78a25; fill-rule: nonzero; opacity: 0;" transform="" stroke-linecap="round" />
  <path d="M 45.874 1894.001 H 0 v -93 h 60.507 l 228.447 -896.656 l 93.291 60.066 l -208.65 836.59 H 221 v 93 h -79.064 l -49.757 307.594 z" style="stroke: none; stroke-width: 1; stroke-dasharray: none; stroke-linecap: butt; stroke-linejoin: miter; stroke-miterlimit: 10; fill: #000008; fill-rule: nonzero; opacity: 1;" transform="" stroke-linecap="round" />
  <path d="M 778.52 1476.822 l 90.021 -28.005 l 6.993 22.511 l -90.044 28.005 z" style="stroke: none; stroke-width: 1; stroke-dasharray: none; stroke-linecap: butt; stroke-linejoin: miter; stroke-miterlimit: 10; fill: #b78a25; fill-rule: nonzero; opacity: 0;" transform="" stroke-linecap="round" />
  <path d="M 835.552 1422.06 l 22.511 -6.993 l 31.501 101.283 l -22.522 7.004 z" style="stroke: none; stroke-width: 1; stroke-dasharray: none; stroke-linecap: butt; stroke-linejoin: miter; stroke-miterlimit: 10; fill: #b78a25; fill-rule: nonzero; opacity: 0;" transform="" stroke-linecap="round" />
  <path d="M 921.623 1894.001 H 976 v -93 h -69.021 L 678.532 904.345 l -93.291 60.066 l 208.65 836.59 H 755 v 93 h 70.551 l 49.756 307.594 z" style="stroke: none; stroke-width: 1; stroke-dasharray: none; stroke-linecap: butt; stroke-linejoin: miter; stroke-miterlimit: 10; fill: #000008; fill-rule: nonzero; opacity: 1;" transform="" stroke-linecap="round" />
  <path d="M 735.292 669.72 l 46.407 -9.468 l 0.511 -58.338 l -48.28 -9.763 c -3.064 -17.596 -8.003 -34.567 -14.576 -50.732 l 37.27 -31.729 l -27.722 -51.322 L 678.6 474.17 a 250.156 250.156 0 0 0 -36.02 -34.828 l 16.676 -48.007 l -49.902 -30.195 l -35.851 39.651 c -15.644 -5.71 -32.137 -5.585 -49.097 -8.083 l -9.797 -47.813 l -58.305 -1.544 l -11.579 48.608 l 0.761 -0.454 c -16.426 2.826 -32.296 6.198 -47.484 12.067 l -35.237 -39.652 l -50.505 28.892 l 17.255 49.869 c -12.952 10.683 -24.827 22.566 -35.407 35.621 l -49.517 -17.662 l -30.583 49.631 l 39.891 36.654 l 0.637 0.092 c -5.801 15.337 -10.126 31.398 -12.852 48.029 l -51.991 10.648 l -0.478 58.326 l 52.287 10.58 c 2.611 16.618 6.902 32.717 12.646 48.108 l -39.357 33.534 l 27.732 51.322 l 50.834 -15.974 c 10.512 13.057 22.283 25.077 35.19 35.782 l -16.392 47.225 l 49.892 30.195 l 33.806 -37.382 c 16.461 6.539 33.704 15.654 51.72 18.606 l 8.764 51.99 l 58.315 1.544 l 10.92 -53.082 c 18.05 -2.747 35.555 -9.581 52.174 -15.982 l 30.854 33.137 l 50.527 -29.708 l -14.938 -43.547 c 14.7 -11.807 28.062 -25.359 39.766 -40.174 l 42.854 15.199 l 30.595 -49.698 l -35.566 -32.717 c 6.336 -16.922 10.889 -34.766 13.454 -53.258 z M 484.458 770.854 c -74.832 -1.987 -133.885 -64.241 -131.91 -139.085 c 1.998 -74.811 64.265 -133.874 139.085 -131.864 c 74.832 1.964 133.874 64.24 131.898 139.05 c -1.998 74.844 -64.263 133.886 -139.073 131.899 z" style="stroke: none; stroke-width: 1; stroke-dasharray: none; stroke-linecap: butt; stroke-linejoin: miter; stroke-miterlimit: 10; fill: #000008; fill-rule: nonzero; opacity: 1;" transform="" stroke-linecap="round" />
  <path d="M 535 261.69 c 0 28.891 -23.42 52.311 -52.311 52.311 h -0.379 c -28.891 0 -52.311 -23.42 -52.311 -52.311 V 52.311 C 429.999 23.42 453.419 0 482.31 0 h 0.379 C 511.58 0 535 23.42 535 52.311 V 261.69 z" style="stroke: none; stroke-width: 1; stroke-dasharray: none; stroke-linecap: butt; stroke-linejoin: miter; stroke-miterlimit: 10; fill: #000008; fill-rule: nonzero; opacity: 1;" transform="" stroke-linecap="round" />
</g>
<g style="stroke: none; stroke-width: 1; stroke-dasharray: none; stroke-linecap: butt; stroke-linejoin: miter; stroke-miterlimit: 10; fill: none; fill-rule: nonzero; opacity: 1;" transform="translate(219.79999999999995 30.10999999999996) rotate(90.51) scale(0.05 0.03)" >
  <path d="M 70 1208.001 h 802 v 47 H 70 z" style="stroke: none; stroke-width: 1; stroke-dasharray: none; stroke-linecap: butt; stroke-linejoin: miter; stroke-miterlimit: 10; fill: #b78a25; fill-rule: nonzero; opacity: 0;" transform="" stroke-linecap="round" />
  <path d="M 477 1318.565 c 0 9.629 -7.807 17.436 -17.438 17.436 h -0.127 c -9.629 0 -17.437 -7.807 -17.437 -17.436 v -186.129 c 0 -9.629 7.807 -17.437 17.437 -17.437 h 0.127 c 9.631 0 17.438 7.808 17.438 17.437 v 186.129 z" style="stroke: none; stroke-width: 1; stroke-dasharray: none; stroke-linecap: butt; stroke-linejoin: miter; stroke-miterlimit: 10; fill: #b78a25; fill-rule: nonzero; opacity: 0;" transform="" stroke-linecap="round" />
  <path d="M 45.874 1894.001 H 0 v -93 h 60.507 l 228.447 -896.656 l 93.291 60.066 l -208.65 836.59 H 221 v 93 h -79.064 l -49.757 307.594 z" style="stroke: none; stroke-width: 1; stroke-dasharray: none; stroke-linecap: butt; stroke-linejoin: miter; stroke-miterlimit: 10; fill: #000008; fill-rule: nonzero; opacity: 1;" transform="" stroke-linecap="round" />
  <path d="M 778.52 1476.822 l 90.021 -28.005 l 6.993 22.511 l -90.044 28.005 z" style="stroke: none; stroke-width: 1; stroke-dasharray: none; stroke-linecap: butt; stroke-linejoin: miter; stroke-miterlimit: 10; fill: #b78a25; fill-rule: nonzero; opacity: 0;" transform="" stroke-linecap="round" />
  <path d="M 835.552 1422.06 l 22.511 -6.993 l 31.501 101.283 l -22.522 7.004 z" style="stroke: none; stroke-width: 1; stroke-dasharray: none; stroke-linecap: butt; stroke-linejoin: miter; stroke-miterlimit: 10; fill: #b78a25; fill-rule: nonzero; opacity: 0;" transform="" stroke-linecap="round" />
  <path d="M 921.623 1894.001 H 976 v -93 h -69.021 L 678.532 904.345 l -93.291 60.066 l 208.65 836.59 H 755 v 93 h 70.551 l 49.756 307.594 z" style="stroke: none; stroke-width: 1; stroke-dasharray: none; stroke-linecap: butt; stroke-linejoin: miter; stroke-miterlimit: 10; fill: #000008; fill-rule: nonzero; opacity: 1;" transform="" stroke-linecap="round" />
  <path d="M 735.292 669.72 l 46.407 -9.468 l 0.511 -58.338 l -48.28 -9.763 c -3.064 -17.596 -8.003 -34.567 -14.576 -50.732 l 37.27 -31.729 l -27.722 -51.322 L 678.6 474.17 a 250.156 250.156 0 0 0 -36.02 -34.828 l 16.676 -48.007 l -49.902 -30.195 l -35.851 39.651 c -15.644 -5.71 -32.137 -5.585 -49.097 -8.083 l -9.797 -47.813 l -58.305 -1.544 l -11.579 48.608 l 0.761 -0.454 c -16.426 2.826 -32.296 6.198 -47.484 12.067 l -35.237 -39.652 l -50.505 28.892 l 17.255 49.869 c -12.952 10.683 -24.827 22.566 -35.407 35.621 l -49.517 -17.662 l -30.583 49.631 l 39.891 36.654 l 0.637 0.092 c -5.801 15.337 -10.126 31.398 -12.852 48.029 l -51.991 10.648 l -0.478 58.326 l 52.287 10.58 c 2.611 16.618 6.902 32.717 12.646 48.108 l -39.357 33.534 l 27.732 51.322 l 50.834 -15.974 c 10.512 13.057 22.283 25.077 35.19 35.782 l -16.392 47.225 l 49.892 30.195 l 33.806 -37.382 c 16.461 6.539 33.704 15.654 51.72 18.606 l 8.764 51.99 l 58.315 1.544 l 10.92 -53.082 c 18.05 -2.747 35.555 -9.581 52.174 -15.982 l 30.854 33.137 l 50.527 -29.708 l -14.938 -43.547 c 14.7 -11.807 28.062 -25.359 39.766 -40.174 l 42.854 15.199 l 30.595 -49.698 l -35.566 -32.717 c 6.336 -16.922 10.889 -34.766 13.454 -53.258 z M 484.458 770.854 c -74.832 -1.987 -133.885 -64.241 -131.91 -139.085 c 1.998 -74.811 64.265 -133.874 139.085 -131.864 c 74.832 1.964 133.874 64.24 131.898 139.05 c -1.998 74.844 -64.263 133.886 -139.073 131.899 z" style="stroke: none; stroke-width: 1; stroke-dasharray: none; stroke-linecap: butt; stroke-linejoin: miter; stroke-miterlimit: 10; fill: #000008; fill-rule: nonzero; opacity: 1;" transform="" stroke-linecap="round" />
  <path d="M 535 261.69 c 0 28.891 -23.42 52.311 -52.311 52.311 h -0.379 c -28.891 0 -52.311 -23.42 -52.311 -52.311 V 52.311 C 429.999 23.42 453.419 0 482.31 0 h 0.379 C 511.58 0 535 23.42 535 52.311 V 261.69 z" style="stroke: none; stroke-width: 1; stroke-dasharray: none; stroke-linecap: butt; stroke-linejoin: miter; stroke-miterlimit: 10; fill: #000008; fill-rule: nonzero; opacity: 1;" transform="" stroke-linecap="round" />
</g>
</svg>